<svg height="186" viewBox="0 0 280 186" width="280" xmlns="http://www.w3.org/2000/svg"><g fill="none" fill-rule="evenodd"><g fill-rule="nonzero"><path d="m274.686299 3.629322c1.02288 4.336961-.35725 7.839879-2.1319 11.579108-.2958 4.601063 6.03844 3.308328 7.1968 7.172668 1.50336 9.716433-4.15298 17.472921-7.66501 25.3684-2.4277 4.267449-6.56826 8.062294-10.05578 11.801539-.36967 2.627172 3.09317 2.418686 4.53491 3.655821.75177.47262 1.54046 1.25103 1.95949 1.973873-1.03515 4.920781-5.87828 7.839879-9.43966 10.897985l-6.4573 4.031141c-.43128.33363.19709 1.00086-.39435 1.04256 1.12143 1.29273 3.86944 2.37698 2.7235 4.82346-3.51219 4.23964-8.25662 7.07535-12.74217 10.32808-4.44879 2.87739-9.29176 4.80956-13.92522 6.76952-1.02289.37532-1.44191 1.51517-.73951 2.27968.99821.90356 1.2324 2.29359.7887 3.62805-2.76027 4.53157-8.3921 6.67224-13.23507 8.6183-4.41169 1.58466-8.88499 2.8774-13.53087 3.94775-.70241.1112-1.09676 1.07034-.96111 1.66805.5545 1.25107 1.87303 2.66891 1.09675 4.35086-4.54733 4.82348-11.74397 5.81041-18.2261 6.50545l-8.81096.41702c-1.33094.44481-.7887 1.89046-.38209 2.62719.49289.93132.57918 1.91827.36967 2.97469-1.95932 3.54464-6.19843 3.57245-9.71062 4.18406l-10.58561.41701c-2.02092 1.45955-.04935 4.23965-2.10721 5.79651-5.01555 2.794-11.1156 1.93218-16.88274 2.30748-2.55092 1.77925-3.68477 4.92078-5.97682 7.03366-16.91968 19.91942-43.15579 29.48295-70.069628 24.21467-28.799289-5.87993-53.359301-30.09459-58.313239-57.99289-1.096753-7.11705-1.528034-15.04034-.135645-22.3798.492893-8.2152 3.364292-16.5694 7.11051-23.83936 9.907876-20.586642 32.274382-35.307263 54.998302-37.767653 7.38163-.97305 15.7368-.847939 23.1923.333613 3.70928-2.446494 6.28488-7.186564 9.8832-10.34199 10.06803-10.341973 24.72033-13.775379 38.75635-15.20712 19.87736.083374 39.29876 4.448159 58.85565 4.795652l8.52758.430917c.03693.403126.13547.597732.51757.639436l.32048-.250223-.16033-.319701c15.8476-.055616 31.05441-3.127634 44.72092-10.216878 7.14745-2.390879 13.5062-6.61664 19.7664-10.67557 2.20576-1.334471 7.19664-.986945 7.31986 2.376982" fill="#e41837"/><path d="m269.313499 6.979338c-2.24286 9.702554-8.23194 17.820447-14.99729 24.756772-5.42232 4.740086-12.21235 9.132646-18.91609 12.051745 14.15924-1.820955 27.13561-11.454013 37.31444-20.878536.40677-.250223.8258-.403126 1.17079-.069512 1.21997 1.501253.32048 3.475127.30806 5.35168-1.38014 6.449842-3.89412 12.371447-7.23374 17.723144-5.34828 6.700048-11.83026 12.010025-19.24882 17.014213 3.63541.889641 7.28309.889641 10.69657 2.043369.27112.222414.81337.681139.66547 1.167656-.94885 2.446477-3.52445 3.447318-5.50844 5.393384-5.73038 3.906044-12.66831 7.005854-18.79287 9.883244 3.31494 1.15376 6.76535 1.13985 9.83384 2.73841.27113.33361.17258 1.20936-.1479 1.47344-9.11901 6.88076-20.49348 12.84409-31.75681 15.95779l5.84118 3.47511c.33273.33362 0 .88964.0371 1.30667-9.9203 5.30997-20.19785 9.11873-31.33795 10.18905l-.54225.43092c2.47705 1.84878 4.65813 4.44817 6.48197 6.60274.06161 1.39005-1.94706 1.76536-3.16704 2.02947-9.46417 1.91828-19.65543 2.40479-29.8591 1.00083l-.30806.25022c1.57739 2.73839 5.36071 5.01809 6.51907 8.0067.09855.79232-.78869.88963-1.30627 1.04253-6.83938 1.41786-14.24569.70893-21.3562-.0556-.25871 2.44648 1.81158 4.32305 1.04756 6.79733-4.09138 1.43176-8.95902-.0556-13.23506.34753-3.623 5.22657-6.65455 10.52266-11.3743 15.02644-14.71391 14.84573-34.94853 20.83683-56.39086 17.82044-23.672934-3.25272-44.351249-20.35034-52.903504-42.35483-6.913254-18.07064-4.732169-41.85439 6.642295-57.756585 12.286051-18.070636 33.703871-30.330883 56.193599-28.871317 5.43458-.208519 11.39898 1.028616 16.24195 1.848762 5.23732-9.382852 13.49393-18.334771 24.37534-22.268606 12.95169-5.115404 27.32044-6.018925 42.39176-4.197954l34.76369 3.461215c10.94286.903537 21.14653.333613 31.43634-1.112024 16.61161-1.459549 31.15311-10.314181 45.23849-19.530219 1.09675-.069495 1.46642.959154 1.18304 1.904379" fill="#fff"/><path d="m200.747229 38.15816-13.50619-.764531-39.58199-3.600222c-18.04126-.76453-38.00475 4.559343-47.40731 20.572731-1.50352.222415-2.85898-1.000824-4.27621-1.542957l.08629-.875729c19.03931-32.110151 59.70578-21.212167 92.55935-19.029791 18.82997.653332 38.83039 2.210184 55.67619-5.796493 5.45926-2.265784 10.40077-5.184899 15.2931-8.576618-14.34424 17.04202-36.92026 20.892448-58.84323 19.61361" fill="#e41837"/><path d="m226.145289 68.280541c-10.11722 2.543781-20.70283 2.974698-31.58423 2.488182-1.46642-.93133-3.51219-1.264943-4.20218-3.016402l-1.98416-.806235c1.41724-.250206 3.90654.333614 5.16345-1.209343 2.43996.152919 4.97862.430934 6.70391-1.042545l-.4437-1.320525c1.77448-1.000858 5.05248.639419 5.37296-2.390895 2.46463.069495 5.00313.347509 7.59098.82013 1.18304-.069495.98595-1.765371 2.40302-1.209343 1.20772.52822 2.43995.069495 3.31494-.722843 2.43995.264118 5.04022.847938 6.95035-.430901l.08629-.875729c3.32719-.639436 5.91505.931329 9.0574-.013896 1.0845-2.627205 4.64588.806234 5.50861-2.446495 1.77448-.208518 4.36234.569924 5.33587-1.195447-.07387-.305806-.13548-.611611 0-.986929 6.49439-1.751459 12.93926-5.782614 18.29997-9.924951-7.50486 13.066465-23.5989 20.683929-37.57348 24.284167" fill="#e41837"/><path d="m253.059129 46.192645c-11.70703 6.116212-24.68323 7.951078-37.91847 9.077031l-9.56272.152886-34.93627-2.793987c-.43128.23631-1.05981-.319718-1.65125-.180711-11.818-.097304-24.26438-4.392544-35.40448-1.278855-14.39343 3.66975-26.66739 15.248857-29.18138 30.233618-1.454 12.44094-3.85702 26.64723-15.78599 32.16575-.24644-1.40397 1.33095-1.43176 1.73755-2.37699 7.27067-6.29692 9.9203-15.26275 10.09271-26.07734-.04919-14.970831 8.72483-26.939169 20.87557-33.68092 6.901-3.489022 13.99909-6.463737 21.68877-6.519337 5.15103-1.223239 11.30027.236311 16.75952.625524-.01226.194606.18484.208519.2587.333613l.53-.250206c22.85939 4.44816 45.92847 5.949413 68.61546 6.43593 6.33407-.29191 12.43412-2.001666 18.32448-3.808724l.80112.069495c1.26933-1.028649 3.19171-1.417862 4.75668-2.126777" fill="#e41837"/><path d="m234.364979 49.681668-.185-.222415.19725.013913z" fill="#fff"/><path d="m193.624459 59.439821c-7.08583 3.57243-15.56422 4.614975-24.10422 4.39256l-4.95393-.639419c-1.72513-1.278839-3.65993-2.557693-5.07717-4.086754 1.01063-.194607 2.11964-.458709 2.89608-1.264927 1.39256.847905 3.08075 1.612453 4.67039 1.390038.69015-1.807059 1.70062-.222415 2.77269-.194607 1.71304.681123 3.59848 2.265784 5.47151 1.376142l.48064-.834026c1.66368.097304 4.30089 2.251888 5.34828-.208502 1.91013.500396 4.43637 2.752283 5.86586.347509 1.3432-.444812 3.22865 1.028633 4.11589-.653331z" fill="#e41837"/><path d="m156.149699 61.691709c-.85031 1.584644-3.09317 1.529044-4.65814 2.154584-7.36938 1.765355-15.55196 1.862659-23.41406.806218.06161-.583836.46821-1.515149.1479-2.140689 1.54029-.72281 3.29026-.52822 4.71975-1.848762.16015-.58382-.30806-.736706-.67773-1.056424.68998-.91745 2.00867-.278014 2.93284-.667227 1.25691-.764531 3.59832.389213 3.82025-1.751459 2.50156-1.223256 5.45909-.500429 8.17016.097303 1.05982-1.751459 2.95752-.180711 4.20218.250206 1.639 1.251031 3.61074 2.154585 4.75685 4.15625" fill="#e41837"/><path d="m249.645649 71.324751c-10.27755 6.741736-21.93522 10.606076-33.93806 12.357536-8.15791 1.00084-16.73484.95914-25.06533.63943l-4.41169-1.16764c.71466-1.18155-.67789-1.83486-1.55271-2.12677l-2.47705-.56993c2.36608-1.01475 5.65634.41703 7.54179-1.54295.01242-.98695 1.17079-.84794 1.79916-1.08425 3.0193-.555997 6.4081-.0973 9.55046-.04171.71483-.23631.71483-1.112019.57935-1.723647 1.76222.097304 3.3888 1.445657 5.2249.861834.22193-.278014.18483-.76453.23419-1.153744 1.70061-.403125 3.9804 1.320559 5.13877-.222414 1.33094-.556028 2.77269.681123 4.14056-.041704-.08629-2.877411 3.15478-1.042528 4.55959-1.292734 2.05803.222414 4.2146 2.029473 6.13698.653331.25871-.653331-.57918-.945241-.7395-1.431774 2.44012-.639403 4.57201.583836 6.95035.347526.70241-.125111.61612-1.112057.38209-1.626364l-.17257-.222398c1.60206-.333614 3.31493.458708 4.79378-.569924 2.46463.861833 4.23911-1.014737 6.56826-.667244 1.17062-1.737547 3.36412-.125078 5.12635-.125078z" fill="#e41837"/><path d="m102.975069 61.858491c-.18483.86185-.73934 1.376175-1.30626 2.099001-2.58786-.667227-4.54717-2.543797-7.02422-3.405631-22.93344-9.174333-47.961829-2.529902-63.907974 13.664197-2.624787 3.363909-5.61941 6.588829-7.874527 10.175159-.542249-.55603-1.318522-.62552-2.094961-.72283 10.881406-19.696999 33.74097-31.498521 56.772952-29.705374 9.36562.820146 18.06578 3.252728 25.43499 7.895478" fill="#e41837"/><path d="m254.981509 71.199639.38209.041704z" fill="#ee2b3d"/><path d="m188.140699 74.507968c-3.59848 1.58466-7.73905 1.529044-11.63317 2.085073-9.03289.806216-19.34737.375317-28.29397-2.460391 0-1.779267-3.03156-1.014736-2.51399-3.04421-.65305-1.334454-2.26737-.917433-3.03155-2.001681 2.10738-.34751 5.18812 1.056457 6.60536-1.139832 1.67593.069512 3.69686.500429 5.3236-.013896l.55451-1.515165c11.5222-.917417 24.31356 1.042545 32.98921 8.090102" fill="#e41837"/><path d="m143.308809 75.856318-.04919.389213c-8.71257 3.294396-18.78061 3.489026-28.54041 1.737566.38192-.736742.83788-1.376161.14773-2.154587.7887-1.876571 5.34829-2.071177 3.96815-4.879077 1.31852-1.431757 4.00492-.653315 4.83072-2.835691 7.67727-.041703 14.2086 3.322208 19.643 7.742576" fill="#e41837"/><path d="m246.983759 85.892467.6408-.5282-.23403.47262z" fill="#ee2b3d"/><path d="m181.387599 85.795167c-9.21789 6.86685-22.15716 5.47681-33.55613 3.44733-1.67594-.86185-3.99267-1.30666-4.65814-3.26662-.32031-.70891-1.07208-1.00084-1.86077-1.08423.81337-1.18155-.33274-2.3909-1.36787-2.90522 1.57738-.80622 4.52265.0973 6.14923-1.19543l.09854-.97305c11.73172-1.00083 25.60758-.97302 35.19514 5.97722" fill="#e41837"/><path d="m96.308259 75.216882c.3821 1.112057-.08629 2.641105-.09854 3.725355-7.0489-4.017248-15.89696-7.047562-25.09-6.561046-5.75489.361422-11.152535 1.946066-16.143406 4.559342-.024678.19464.135645-.528203-.332736.208519l-.308058.208505c-13.000879 7.25607-21.023307 20.47544-20.148488 36.0301.591604 13.65029 9.562884 27.23108 21.910712 33.2917 13.037976 6.81125 30.130236 5.4212 41.492106-3.1971l5.17571-4.17015c1.14611.31969 2.39076.66721 2.96994 1.61246l-.39434 1.02863c-12.72976 12.89964-31.58424 16.18018-48.368431 9.35503-12.927011-5.15709-23.69745-18.52937-25.8787-32.15186-3.093168-15.88828 3.709284-32.38817 16.550006-41.923891 13.567804-10.647811 34.492565-11.148207 48.664225-2.015594" fill="#e41837"/><path d="m234.081429 89.617817c-13.29668 8.11788-28.02285 12.32973-43.99367 11.67641-5.97683-.25022-11.62075-.06951-17.49903-1.19544-2.60011-1.45957-4.83071-3.57242-7.19663-5.31 2.29205-1.32054 5.75489-.45872 8.56451-.94522.40677-1.91828 2.45238-.91744 3.4751-1.98777 4.88007-1.52906 11.18946-.76453 16.19275.3753.46822.1529.80095-.11118 1.13369-.3753-.08629-1.08425.46838-1.72369 1.44191-1.51517l8.2442 1.08425c1.7498.2085.18483-2.6272 2.25511-1.82097 1.67594.0973 4.00509 1.22324 5.33587-.0973 1.95948.0973 4.31314 1.13983 6.07537.34752.24644-.55603-.48064-1.02865-.73934-1.34836 1.71287-.51433 4.64588 1.58467 5.93972-.44482 1.92238-.38923 3.65993 1.66807 5.13877-.12511 1.91013.58382 4.0667.62552 5.63167 1.68198" fill="#e41837"/><path d="m240.637439 89.937507c.28338.12511-.20952.16681-.30806.16681l.23402-.278z" fill="#ee2b3d"/><g fill="#e41837" transform="translate(13.317389 76.320757)"><path d="m123.25075 13.58897.32032.61161c-4.51024 2.655-9.96933 2.96081-15.20681 3.18322-4.12814.0417-8.57693.0556-12.54492-1.44567.94885-1.47345-1.26933-2.80788.70241-3.76702.65321-.62551 1.50335-1.12594 1.60206-2.09899l-.87498-.97301c.96127-.69504 2.34141-1.61247 2.09496-2.93301 3.14236-.93135 6.97486.1668 10.27754.51432 5.07717 1.34834 9.68595 3.41951 13.62942 6.90855"/><path d="m67.30343 1.91254.6408 9.61913-.27113.66723c-3.86944-.62552-8.355-1.00082-12.24911-.44481.06161-3.43342.23402-7.74258 1.36787-10.967499 3.1301-.750618 6.85164-.458708 10.20351.403129z"/><path d="m80.29205 6.56921-.07386.58383-8.34275 6.18571c-.91191.38923-.76401-.95914-.89966-1.58466-.06161-3.1415-.2958-6.42204-.36967-9.38282 1.60207-.31972 3.09317.62552 4.51024 1.16762 1.76222.88964 3.52445 1.87657 5.1757 3.03032"/><path d="m53.08258 2.44076-1.30627 10.10567c-.67789.90353-1.66368-.08341-2.292215-.54214l-7.011799-6.26911c1.971737-1.84876 4.64588-2.75232 7.085833-3.66973 1.195301.0278 3.647671-1.876574 3.524451.37531"/><path d="m152.28422 21.84586c-6.90099 3.87823-15.18229 3.97553-23.31552 4.36476-4.78135.47262-10.03109-.0973-13.50619-3.43344.28338-.75061 2.07029-.94522 1.42949-2.21018l-2.52624-1.25103c2.05786-.95914 5.21264.95912 6.51891-1.07035 1.09675-.18071 2.46463-.02779 3.16703-1.12594-.66547-2.04337 2.47705-1.01474 3.04381-2.62719 8.3921-1.15374 16.40227 2.16848 23.18004 5.94942.6408.47262 1.39239.84793 2.00867 1.40395"/><path d="m82.83072 9.5022c.30806 4.37866-.32048 8.43763-2.0211 12.28806-2.07028-1.69588-3.99266-4.07285-6.2231-6.08844l.35741-.6533c2.87124-1.95998 4.76894-4.01724 7.88679-5.54632"/><path d="m47.832838 14.4786c-1.380133 1.72365-3.20397 2.40477-4.769103 4.01724l-3.869442 4.79567c-2.538497-2.04337-4.732169-5.3378-6.826964-7.82598.431282-2.22408 2.51382-4.05893 4.152822-5.65751 1.146108-.5699 2.18125-2.8079 3.733962-1.76537 2.538497 2.04339 5.175706 4.00335 7.578725 6.43595"/><path d="m109.5473 24.69546c-2.61253 1.39005-5.80424 1.84878-8.72483 2.40479-3.69686.48652-7.76356.63942-11.15237-.61161 1.68819-2.97472 3.05607-6.56104 4.69507-9.73036 2.08271-.16682 4.22686.94524 6.1986 1.75146 3.30268 1.44563 6.27245 3.83653 8.98353 6.18572"/><path d="m195.69871 31.95152c-2.14415 1.64026-5.28667 2.47428-7.7513 3.39172-12.69282 2.66889-26.82755 4.97638-40.06262.88964-2.85898-.90352-5.82892-1.70976-8.42903-3.18323 2.72333-.58381 6.17391-.69501 9.06982-1.86266.19709-1.86266 2.58786-1.19543 3.83251-1.76536l1.61432-1.29275c6.85165 1.23714 13.83893 2.2797 20.07446 4.62887.4066-.0556.92434-.29191.88724-.88964l-.1108-.88961c2.10721-.26412 4.70732 1.19543 6.53116-.18071 1.68836-.11121 3.96815 1.51515 4.97862-.44483 1.7869-.2085 3.88186 1.30665 5.50844 0 1.55271.16682 2.85898.90352 3.85718 1.59856"/><path d="m66.83522 16.24395-.07404.68112-5.3236 3.85045c-2.73576-.29191-4.26379-2.5299-6.34633-4.33696.62837-1.19543 2.16883-.83403 3.29026-1.22324 2.79736-.27801 5.90279.0556 8.45371 1.02863"/><path d="m78.27113 25.25147c.36967 1.12595-.73934 1.30665-1.42949 1.43177-1.65126-.1946-3.38897.20849-4.76911-.61162-.92417-2.27968-.12322-5.1432-.46821-7.45069 3.03139 1.22326 5.00313 3.89215 6.66681 6.63054"/><path d="m51.13552 18.48193c-.77644 2.66891.44354 6.83905-2.711078 7.8677-1.971737 0-3.832508.66721-5.93989.25019.197257-1.84876 1.94706-3.53073 3.105424-5.07367 1.725291-1.39007 2.982201-2.93301 5.138774-3.68363z"/><path d="m68.48648 22.81889c-.88725.1112-1.71287-.4865-2.35367-.94523.18484-.76453 1.20756-1.15374 1.86077-1.66805.52983.556.50532 1.62635.4929 2.61328"/><path d="m55.95381 21.35934-1.67593.90352c-.23419-.61161-.32048-1.50125.03693-2.15455.67773.06948 1.31869.5282 1.639 1.25103"/><path d="m37.49368 26.34963c.061612 1.19543-1.281587.84792-1.996249 1.16762l-9.131603.59774c.382092-3.51683 1.86077-7.18657 3.746218-10.03615 2.908333 2.27966 4.707492 5.62969 7.381634 8.27079"/><path d="m127.60082 33.45277-.04935.38921c-12.24911 4.96249-30.29039 6.06062-41.38114-2.51599.28338-.75061.45596-1.41784 1.39239-1.82097 1.44191.45873 3.0193 2.19629 4.70749 1.00086.92434.5977 2.04577 1.20933 3.32736 1.15373 1.92238-1.45955 5.48377 2.07118 6.40794-1.07034 2.71108-.40311 5.76731.52821 8.29355-.0973-.18483-1.89048 1.60207-1.20934 2.74801-1.66807l1.03514-.56991c5.13878.75062 9.72305 2.12678 13.51861 5.19878"/><path d="m140.71267 36.03827c2.29205.75062 4.01734 3.79483 6.70374 2.51599 2.03335.40311 3.62316 3.0442 5.84118 1.69586 1.12143.43092 2.0827 1.61245 3.49993 1.36223.52983-1.40393 1.50336-1.30663 2.50157-.50039 1.42949.5421 2.63721 2.93299 4.37475 1.55685 2.1319 1.20932 4.83072-.06951 6.44504 2.16848.17242.3197.72692.47262.4929.93131-14.67698 2.84962-31.27634-1.20933-44.67156-6.50541 1.1461-.65333 3.15477-.1529 3.54912-1.97387 2.16882.0417 3.88169-1.25105 5.4715-2.36309 1.77449 1.77927 4.00493-.65333 5.79183 1.11204"/><path d="m75.47376 29.28263c-.33274.3614-.39435.84793-.97353.88964-.38209-.13901-.1479-.51433-.20951-.82015.34499-.3614.78869-.1112 1.18304-.06949"/><path d="m66.39151 32.24343c1.04757 2.08507 1.21998 5.15707-.27112 6.96416-.75159 1.59854-2.60011 2.26579-4.04202 2.80789-2.26737.139-4.95377-.5421-6.34633-2.26579-1.30626-1.61245-1.77464-3.53072-1.55271-5.68529.51757-2.09899 1.87303-3.62803 3.93105-4.58717 1.39256-.93133 3.5122-.51432 5.05249-.0556 1.51578.45871 2.35366 1.75146 3.22864 2.8218"/><path d="m46.304804 31.25648c-.727084.30582-1.096753-.82011-1.3432-1.13983.36967-.63942 1.133687-.55601 1.811415-.38921z"/><path d="m93.49019 40.0972.81337-1.00082c4.22686 2.72449 7.17212 7.38115 10.31448 11.06478.96127.38923 1.17079-.76451 1.51578-1.20933 1.9348 1.27886 3.19171 3.2944 4.99087 4.87909.67773.16679 1.13369-.48652 1.26933-.86184l.08629-.68114c2.3906 1.44567 3.98041 4.07286 5.95198 5.86602 1.98416-1.07033 2.73576 1.97388 4.86765 1.50126.80112.68112 1.0845 1.59855 1.10918 2.4882-16.80888-2.21019-31.07909-12.31586-40.24746-25.81324l-.54225-1.44565c3.26558 1.73756 5.97666 4.87906 9.87078 5.21267"/><path d="m45.676266 36.10777c-.468215 2.50209-2.538498 3.55852-3.955731 5.6714l-.65305-.26412c-1.133852-3.1832-1.170786-7.32556-.209512-10.85627l.480636.0556z"/><path d="m36.347572 30.56148c-.123223 3.72533-.172413 7.96497.801117 11.71812-3.413483.61162-7.048899-.37532-10.573348-.55603-1.244654-1.32055-1.035142-3.26661-1.219976-5.05977-.024678-1.66806-.406604-3.68363.566926-5.2544 3.388804-.4309 6.974865-.91743 10.425281-.84792"/><path d="m121.04482 44.94849c.75176.36142 1.45417.16681 2.18125-.15291 3.56138 1.55686 6.74084 4.07285 10.19125 5.92161.9366.40312 1.24466-.55603 1.68836-1.09813 1.83609.29191 2.43995 3.0164 4.52249 1.97388 1.72529.47262 3.09317 2.39088 4.5104 3.62801l.24645.41702-.60386.33362c-9.48885.2502-18.02885-2.73841-26.1745-5.58801l-.23402-.61162c-.19726-.0278-.11097.18072-.12322.29191-5.13878-1.65417-9.85869-4.53156-13.60491-8.0901 1.86077-.87571 4.51024 1.87659 5.68102-.65331 2.02093-.47262 4.63346.87573 6.51891-.27802 1.87319.97304 3.58606 2.4465 5.20038 3.90605"/><path d="m81.15478 41.32046c.99821 1.68196 1.1953 4.46207 3.63525 4.62885.2958 1.90438 2.99463 2.3909 3.25333 4.48987.43128.63943 1.41723.63943 1.9348.30582.49289.94524.96111 2.07116 1.91013 2.47429.83788 1.27885.9611 2.86351 2.35366 3.79483 1.45417-.73671 2.16883.73674 2.84672 1.77928 2.43995.18071 2.64947 2.84959 3.54896 4.51764-3.19171-.4448-6.02601-2.51597-8.7987-4.10063-6.4081-4.53157-13.87586-9.27163-17.27709-17.02812-.43128-1.32054.36967-2.4326.60386-3.66973.86257-.69504 1.99625-1.07035 3.00688-1.45955.94885 1.39004 1.1953 3.48902 2.9822 4.26745"/><path d="m37.764805 75.71031c14.763105 8.29858 35.059495 8.13178 49.083255-1.39007 3.40123-2.18238 6.60519-5.47679 9.46417-8.3264 3.64767.80624 7.11051 2.5438 10.88141 2.26579.71466-.22242.72708-1.19543.36967-1.52905-1.68819-2.65499-4.05428-5.36561-5.00313-8.4237 3.64767.88961 6.93793 3.30832 10.53625 4.68447-.65322 3.1832-3.06849 5.47678-4.55959 8.2708-14.51666 18.71005-39.34796 27.94-63.143955 21.23995-7.788237-2.51599-15.416318-5.7131-21.61491-11.2177-5.212641-3.79484-9.698364-8.71562-13.407648-13.55299-7.406146-10.74508-10.043355-22.74122-10.104967-35.8633.431282.54213 1.170621 1.01475 1.712869.48653l1.01063-1.07035c.332735.54212.837884 1.26496 1.651257 1.07035.837885-.40312.739339-1.40396 1.725291-.50043-.049356.48652.184835 1.09813.726917 1.45955 1.133853.41703 1.589812-1.01473 2.452375.1668 1.158364-.66721 2.748176.88964 3.241068-.83401l.566761-1.51516c-.714662 18.33477 8.03485 35.72429 24.412277 44.57892"/></g><path d="m48.161604 109.773527c.061612.30581-.135479.38921-.258868.56992l.074034-.59773z" fill="#ee2b3d"/><path d="m61.298128 119.364887c-.887241.11119-1.996415.38921-2.8343-.19461.591438-.73674.739339-1.30665 1.675935-1.69586.640794.36139.73934 1.26494 1.158365 1.89047" fill="#e41837"/><path d="m87.669719 126.954537c-.96127.58384-1.67594 1.77929-2.73575 1.57075.20951-1.84876-.14791-4.05891.65321-5.9355.57918.94524 3.14236 2.6967 2.08254 4.36475" fill="#e41837"/><path d="m81.520489 127.357667c-.80096.02779-1.79916-.76452-2.20593-1.50126.48063-.84793 1.61432-1.20936 2.39076-1.22325-.08629.86183.39435 1.91829-.18483 2.72451" fill="#e41837"/><path d="m64.268069 124.813867.19709 4.55936c-3.228643-1.13983-5.693273-3.78093-7.554043-6.74174 2.181084-.139 4.64588-.0834 6.839383.45873z" fill="#e41837"/><path d="m51.451863 122.242297c-1.712869 3.05809-4.263788 5.74089-6.617451 8.34029-1.318688-.52822-1.380299-1.91829-2.329151-3.00251-.97353-2.08509-1.934803-3.94775-2.156572-6.43594 3.499771-.51431 7.036642.45872 10.745761.66722z" fill="#e41837"/><path d="m70.331019 126.064917c-.67773.80623-1.31852 1.33445-2.18125 1.91827-.61611-.55603-.28338-1.90436-.28338-2.78011.86256.29191 1.84852.19461 2.46463.86184" fill="#e41837"/><path d="m80.164859 130.665997-.03693.3892c-3.278 1.12595-6.86406 1.52906-10.179.37531 1.26933-1.72366 2.96994-2.82181 4.60895-4.32305 2.09496.62552 3.79557 2.18238 5.60698 3.55854" fill="#e41837"/><path d="m62.099079 132.848377c.419025.73672-.381926 1.04252-.73934 1.50125l-7.048898 6.01891c-2.920589-1.29274-5.471509-4.03114-7.258246-6.58883.406604-1.04253.73934-2.2936 1.688192-2.86352l4.818293-5.49069c2.686564 2.46039 5.114261 5.5741 8.539999 7.42288" fill="#e41837"/><path d="m98.452579 136.379097c-.20951.95914-1.17079 1.75146-1.88545 2.07116-3.1672-1.72365-6.27262-3.93383-8.76177-6.36641.92418-1.27884 1.84835-1.76538 2.92059-2.5438l1.14595.43092z" fill="#e41837"/><path d="m93.362999 140.660447c-2.4277 2.39089-6.67907 3.93383-10.11722 4.75398l.13548-.72284c.57918-3.57242.48063-7.21436 1.13368-10.49488 3.38897 1.43176 6.06311 4.10065 8.84806 6.46374" fill="#e41837"/><path d="m80.275829 145.247607c-.57918 1.70976-2.69882 1.29276-4.11589 1.62637-2.67414.08339-4.58426.48652-6.51907-.80622-.50515-3.50295-.92417-6.89465-.83788-10.5227 3.84476.1112 7.72662.54212 11.38655-.4448l.66547.18068z" fill="#e41837"/><path d="m66.079489 145.386617c-2.4277.52821-4.695072-1.29275-6.974867-2.02947-.455959-.34751-1.022885-.51433-1.478844-.94524 2.230439-2.32139 4.621202-4.43427 7.320021-6.58884.75176 3.03032 1.07208 6.40813 1.13369 9.56355" fill="#e41837"/><path d="m134.078829 166.028857.23419-2.05728 1.82384.20852c.80095.08339 1.66351.27799 1.57739 1.18155-.12322 1.19543-1.51578.90352-2.44012.7923zm2.21819.82013c1.14611.08341 2.07028-.23631 2.1935-1.39005.06161-.47261-.12322-1.02864-.59144-1.33446-.4437-.3058-.97353-.37532-1.51577-.44481l-2.79737-.30581-.61612 5.81041.76402.08341.29564-2.68281 1.44191.16682 1.54029 2.86351.92434.11118zm-1.45417 4.86518c3.15478.34749 5.95214-1.70977 6.27245-4.58717.29581-2.86351-1.98398-5.47681-5.15102-5.81042-3.17946-.34749-5.98908 1.70977-6.30939 4.57327-.30823 2.87741 2.00867 5.47681 5.18796 5.82432m.06161-.62552c-2.78494-.30583-4.81829-2.5855-4.53491-5.1293.27112-2.51599 2.74801-4.32305 5.53312-4.01725 2.76043.29191 4.79377 2.58551 4.52265 5.11539-.28355 2.5299-2.73575 4.33696-5.52086 4.03116" fill="#e41837"/></g><path d="m134.078829 166.028857.23419-2.05728 1.82384.20852c.80095.08339 1.66351.27799 1.57739 1.18155-.12322 1.19543-1.51578.90352-2.44012.7923zm2.21819.82013c1.14611.08341 2.07028-.23631 2.1935-1.39005.06161-.47261-.12322-1.02864-.59144-1.33446-.4437-.3058-.97353-.37532-1.51577-.44481l-2.79737-.30581-.61612 5.81041.76402.08341.29564-2.68281 1.44191.16682 1.54029 2.86351.92434.11118zm-1.45417 4.86518c3.15478.34749 5.95214-1.70977 6.27245-4.58717.29581-2.86351-1.98398-5.47681-5.15102-5.81042-3.17946-.34749-5.98908 1.70977-6.30939 4.57327-.30823 2.87741 2.00867 5.47681 5.18796 5.82432zm.06161-.62552c-2.78494-.30583-4.81829-2.5855-4.53491-5.1293.27112-2.51599 2.74801-4.32305 5.53312-4.01725 2.76043.29191 4.79377 2.58551 4.52265 5.11539-.28355 2.5299-2.73575 4.33696-5.52086 4.03116z" stroke="#ee2b3d" stroke-width=".001309"/></g></svg>