<svg
  viewBox="0 0 156 20"
  xmlns="http://www.w3.org/2000/svg"
>
  <g fill="none" fill-rule="evenodd">
    <path
      d="M.288 4.915c-.369.067-.4.544.002.523.584-.03 3.267-.092 5.7.137 2.796.262 5.494 1.03 7.577 1.752s6.718 3.438 6.718 3.438-5.983 3.5-7.993 8.703c-.106.28.034.364.38.153 7.655-4.698 12.971-7.565 22.276-9.449.59-.12.526-.196.02-.326-.509-.134-2.293-.463-6.892-2.236-4.597-1.773-9.01-3.404-14.205-3.81-.76-.06-1.547-.085-2.344-.085-5.359 0-11.085 1.176-11.24 1.2M37.309.419c-1.455 1.799-4.5 4.082-7.4 5.278-.38.156-.29.397-.125.503.053.034.258.116.552.226l3.833 1.272c.32.103.3.08.437-.06 2.041-2.101 2.817-5.14 2.928-7.132 0 0 .024-.252-.031-.252-.036 0-.097.044-.194.165"
      fill="#FFCD34"
    />
    <g fill="#001C33">
      <path
        d="M106.322 19.745h-2.452a.443.443 0 01-.37-.204L96.141 6.49v12.794a.454.454 0 01-.446.461h-2.452a.454.454 0 01-.446-.461V.716c0-.254.2-.46.446-.46h2.452a.44.44 0 01.37.204l7.383 12.525V.716c0-.254.2-.46.447-.46h2.426c.247 0 .447.206.447.46v18.568c0 .254-.2.461-.447.461m25.838 0h-2.44a.454.454 0 01-.446-.461V.716c0-.254.2-.46.446-.46h2.44c.247 0 .446.206.446.46v18.568c0 .254-.2.461-.446.461M118.22 20c-2.31 0-4.19-.848-5.59-2.518-1.382-1.652-2.083-4.42-2.083-7.158v-.7c0-1.788.324-3.93.965-5.296.649-1.385 1.586-2.465 2.782-3.21C115.486.377 116.88 0 118.437 0c2.07 0 3.76.596 5.024 1.77 1.025.951 1.712 2.221 2.042 3.776a.476.476 0 01-.089.387.44.44 0 01-.347.173h-2.492a.45.45 0 01-.431-.34c-.229-.867-.579-1.528-1.042-1.964-.62-.582-1.515-.876-2.665-.876-1.427 0-2.512.51-3.314 1.56-.817 1.068-1.232 3.176-1.232 5.195v.715c0 1.907.394 3.977 1.173 5.083.756 1.074 1.789 1.597 3.157 1.597 1.243 0 2.196-.276 2.834-.82.483-.41.851-1.09 1.095-2.02a.45.45 0 01.431-.342h2.486c.136 0 .264.065.35.174.084.11.115.253.085.39-.351 1.6-1.074 2.89-2.146 3.832-1.291 1.134-3.02 1.71-5.135 1.71m-63.514-.255h-9.213a.455.455 0 01-.447-.461V.716c0-.254.2-.46.447-.46h9.213c.247 0 .446.206.446.46v2.002c0 .255-.2.462-.446.462H48.38v5.057h6.327c.247 0 .446.207.446.463v2c0 .256-.2.463-.446.463H48.38v5.658h6.327c.247 0 .446.206.446.46v2.003c0 .254-.2.461-.446.461m32.817 0H78.31a.455.455 0 01-.447-.461V.716c0-.254.2-.46.447-.46h9.213c.247 0 .446.206.446.46v2.002c0 .255-.2.462-.446.462h-6.327v5.057h6.327c.247 0 .446.207.446.463v2c0 .256-.2.463-.446.463h-6.327v5.658h6.327c.247 0 .446.206.446.46v2.003c0 .254-.2.461-.446.461m53.62-5.01l-.447.212.125-.36.715-2.003 2.638-7.527 2.812 7.993c-2.175.433-3.854.9-5.843 1.685m11.33 4.38L145.61.547a.434.434 0 00-.403-.293h-2.07a.435.435 0 00-.404.293l-6.85 18.566a.49.49 0 00.046.43.427.427 0 00.359.201h2.44c.248 0 .464.004.464.004 2.822-3.232 7.176-4.796 8.33-5.172l1.714 4.868c.063.18.225.3.406.3h2.426a.428.428 0 00.359-.202.487.487 0 00.044-.429m-85.916.885c-1.561 0-2.97-.38-4.187-1.128-1.223-.752-2.182-1.834-2.85-3.216-.658-1.366-1.002-2.964-1.018-4.753V9.28c0-2.897.684-5.186 2.034-6.802C61.899.84 63.832.012 66.28.012c2 0 3.644.535 4.881 1.588.89.758 1.543 1.764 1.94 2.991a.477.477 0 01-.06.417.434.434 0 01-.359.192H70.17a.439.439 0 01-.398-.262c-.615-1.348-1.754-2.002-3.48-2.002-1.48 0-2.565.504-3.317 1.544-.769 1.066-1.163 2.657-1.17 4.73v1.516c0 1.966.44 3.54 1.308 4.68.856 1.123 1.987 1.668 3.456 1.668.858 0 1.614-.096 2.249-.286a3.274 3.274 0 001.36-.78v-4.841h-2.966a.452.452 0 01-.442-.461v-2c0-.255.199-.462.442-.462h6.257l-.011 8.604c0 .096-.03.19-.083.269-.667.97-1.606 1.704-2.79 2.18-1.155.465-2.51.7-4.03.7m88.957-17.2c-.125.23-.3.413-.526.548-.226.137-.47.205-.733.205s-.507-.067-.731-.2a1.435 1.435 0 01-.528-.547 1.534 1.534 0 01-.19-.752c0-.272.064-.523.191-.753a1.432 1.432 0 011.258-.739 1.425 1.425 0 011.261.752c.124.228.185.474.185.74 0 .267-.062.516-.187.746m.258-1.645a1.706 1.706 0 00-.637-.654 1.713 1.713 0 00-.88-.24c-.316 0-.61.08-.882.24a1.701 1.701 0 00-.638.654c-.154.277-.23.577-.23.9 0 .325.078.626.231.902a1.732 1.732 0 003.036-.002 1.82 1.82 0 00.23-.9 1.82 1.82 0 00-.23-.9"
      />
      <path
        d="M154.494 1.875a.366.366 0 01-.215.06h-.265v-.472h.262c.115.001.194.02.238.058.044.038.066.102.066.191a.19.19 0 01-.086.163m.366.824a2.58 2.58 0 01-.007-.223.63.63 0 00-.048-.262.327.327 0 00-.17-.162c.15-.081.224-.196.224-.346a.444.444 0 00-.16-.368c-.107-.087-.254-.13-.444-.13h-.522v1.63h.28v-.646h.294c.096 0 .164.021.204.064.041.043.062.113.062.21 0 .205.007.33.024.373h.288v-.031a.391.391 0 01-.025-.11"
      />
    </g>
  </g>
</svg>
