<svg xmlns="http://www.w3.org/2000/svg" role="img" aria-label="Google" class="mx-3" height="33" viewBox="0 0 99 33" width="99"><path d="m24.1255 11.7859h-11.4507v3.4008h8.1208c-.4012 4.7689-4.3652 6.8026-8.1071 6.8026-4.78732 0-8.96472-3.7699-8.96472-9.054 0-5.14751 3.98216-9.11181 8.97532-9.11181 3.8522 0 6.1222 2.45792 6.1222 2.45792l2.3791-2.46586s-3.0537-3.402464-8.6229-3.402464c-7.09115 0-12.5775 5.990774-12.5775 12.461614 0 6.3406 5.16087 12.5237 12.7585 12.5237 6.6826 0 11.5743-4.5819 11.5743-11.357 0-1.4294-.2073-2.2555-.2073-2.2555z"/><path d="m33.5056 9.32324c-4.6985 0-8.0656 3.67646-8.0656 7.96436 0 4.3513 3.2659 8.0961 8.1208 8.0961 4.395 0 7.9956-3.3621 7.9956-8.0026 0-5.3186-4.1883-8.05786-8.0508-8.05786zm.0467 3.15426c2.3106 0 4.5 1.8696 4.5 4.8824 0 2.9487-2.1802 4.8717-4.5106 4.8717-2.5607 0-4.5807-2.0527-4.5807-4.8951 0-2.7815 1.995-4.859 4.5913-4.859z"/><path d="m51.0479 9.32324c-4.6985 0-8.0657 3.67646-8.0657 7.96436 0 4.3513 3.266 8.0961 8.1209 8.0961 4.395 0 7.9955-3.3621 7.9955-8.0026 0-5.3186-4.1883-8.05786-8.0507-8.05786zm.0467 3.15426c2.3106 0 4.5 1.8696 4.5 4.8824 0 2.9487-2.1802 4.8717-4.5106 4.8717-2.5607 0-4.5807-2.0527-4.5807-4.8951 0-2.7815 1.995-4.859 4.5913-4.859z"/><path d="m68.2527 9.33179c-4.3126 0-7.7025 3.78061-7.7025 8.02381 0 4.8335 3.9301 8.0388 7.6282 8.0388 2.2867 0 3.5026-.9085 4.4002-1.9513v1.5836c0 2.7705-1.6807 4.4296-4.2176 4.4296-2.4507 0-3.68-1.8239-4.1071-2.8589l-3.0836 1.2902c1.094 2.315 3.296 4.7293 7.2162 4.7293 4.2878 0 7.556-2.7032 7.556-8.3724v-14.43021h-3.3639v1.36031c-1.0336-1.1155-2.448-1.84281-4.3259-1.84281zm.3122 3.14791c2.1144 0 4.2855 1.807 4.2855 4.893 0 3.1366-2.1665 4.8653-4.3322 4.8653-2.2992 0-4.4385-1.8685-4.4385-4.8356 0-3.083 2.2219-4.9227 4.4852-4.9227z"/><path d="m90.8993 9.3125c-4.068 0-7.4837 3.2395-7.4837 8.0196 0 5.058 3.8073 8.0579 7.8745 8.0579 3.3946 0 5.478-1.8588 6.7213-3.5241l-2.7735-1.8471c-.7197 1.1179-1.9228 2.2105-3.9308 2.2105-2.2556 0-3.2926-1.2362-3.9352-2.4337l10.7585-4.4679-.5586-1.3093c-1.0397-2.5641-3.4643-4.7059-6.6725-4.7059zm.1402 3.0884c1.4659 0 2.5208.78 2.9689 1.7153l-7.1844 3.0055c-.3097-2.3269 1.8928-4.7208 4.2155-4.7208z"/><path d="m78.2871 24.9131h3.5338v-23.66994h-3.5338z"/></svg>