<svg height="178" viewBox="0 0 260 178" width="260" xmlns="http://www.w3.org/2000/svg"><g fill="none"><g fill="#162020" transform="translate(0 135)"><path d="m1.6 32.4c-.8-.5-1.4-1.3-1.4-2.4 0-1.6 1.2-2.8 2.8-2.8.5 0 1 .1 1.4.4 2.4 1.5 4.8 2.2 6.8 2.2 2.1 0 3-.8 3-1.9v-.1c0-1.6-2.4-2.1-5.2-2.9-3.5-1-7.5-2.7-7.5-7.6v-.1c0-5.1 4.1-8 9.2-8 2.6 0 5.3.7 7.8 1.9 1 .5 1.7 1.4 1.7 2.7 0 1.6-1.3 2.8-2.9 2.8-.5 0-.8-.1-1.3-.3-2-1-3.9-1.6-5.4-1.6-1.7 0-2.6.8-2.6 1.7v.1c0 1.4 2.4 2.1 5.1 3 3.5 1.2 7.6 2.9 7.6 7.4v.1c0 5.6-4.2 8.1-9.6 8.1-3.1.2-6.5-.7-9.5-2.7z"/><path d="m43.1 22.3v-.1c0-4.2-2.8-6.9-6.1-6.9s-6.1 2.8-6.1 6.9v.1c0 4.2 2.8 6.9 6.1 6.9 3.3.1 6.1-2.7 6.1-6.9zm-19.2-9.3c0-2 1.6-3.6 3.6-3.6s3.5 1.6 3.5 3.6v.3c1.7-2.3 4.1-4.1 7.8-4.1 5.9 0 11.4 4.6 11.4 13v.1c0 8.4-5.5 13-11.4 13-3.8 0-6.1-1.7-7.8-3.8v7.5c0 2-1.6 3.6-3.6 3.6s-3.6-1.6-3.6-3.6v-26z"/><path d="m90.8 22.4c0-3.8-2.7-7-6.6-7-4.1 0-6.5 3.1-6.5 6.8v.1c0 3.7 2.7 6.9 6.6 6.9 4 .1 6.5-3.1 6.5-6.8zm-20.2 0c0-7.3 5.8-13.2 13.6-13.2s13.6 5.8 13.6 13v.1c0 7.2-5.8 13.1-13.6 13.1s-13.6-5.8-13.6-13z"/><path d="m124 31.6c0 2-1.6 3.6-3.6 3.6s-3.6-1.6-3.6-3.6v-.3c-1.6 2.1-3.8 4-7.4 4-5.4 0-8.5-3.6-8.5-9.3v-13c0-2 1.6-3.6 3.6-3.6s3.6 1.6 3.6 3.6v10.7c0 3.4 1.6 5.1 4.3 5.1s4.4-1.7 4.4-5.1v-10.7c0-2 1.6-3.6 3.6-3.6s3.6 1.6 3.6 3.6z"/><path d="m127.6 27.7v-21.1c0-2 1.6-3.6 3.6-3.6s3.6 1.6 3.6 3.6v3.1h3.1c1.7 0 3.1 1.4 3.1 3.1s-1.4 3.1-3.1 3.1h-3.1v10.7c0 1.6.7 2.4 2.3 2.4.2 0 .7-.1.8-.1 1.6 0 2.9 1.3 2.9 2.9 0 1.3-.8 2.3-1.8 2.7-1.3.5-2.5.7-4.1.7-4.3 0-7.3-1.7-7.3-7.5z"/><path d="m155.7 35.3c-3.5 0-7.3-1.4-10-3.6l1.8-2.6c2.6 2 5.5 3.1 8.4 3.1s5-1.5 5-3.8v-.1c0-2.4-2.9-3.4-6-4.3-3.8-1.1-8-2.4-8-6.8v-.1c0-4.2 3.5-6.9 8.2-6.9 2.9 0 6.2 1 8.7 2.7l-1.6 2.7c-2.2-1.4-4.8-2.4-7.2-2.4-2.9 0-4.7 1.5-4.7 3.5v.1c0 2.3 3 3.2 6.2 4.2 3.8 1.1 7.8 2.6 7.8 6.9v.1c.1 4.6-3.7 7.3-8.6 7.3z"/><path d="m179.8 13.3c-5.2 0-8.9 4.2-8.9 9.4s3.8 9.5 8.9 9.5c5.2 0 8.9-4.2 8.9-9.4.1-5.3-3.8-9.5-8.9-9.5zm0 22.1c-7.3 0-12.6-5.7-12.6-12.6s5.3-12.7 12.7-12.7c7.3 0 12.6 5.7 12.6 12.6s-5.4 12.7-12.7 12.7z"/><path d="m207.6 35.4c-7.1 0-12.4-5.8-12.4-12.6 0-6.9 5.3-12.7 12.4-12.7 4.6 0 7.5 1.9 9.7 4.3l-2.4 2.5c-1.9-2-4.1-3.7-7.4-3.7-4.9 0-8.7 4.2-8.7 9.4 0 5.3 3.8 9.5 8.9 9.5 3.1 0 5.5-1.6 7.4-3.6l2.3 2.2c-2.4 2.7-5.3 4.7-9.8 4.7z"/><path d="m221.4 34.8v-24.2h3.6v24.2zm-.3-29.5v-4h4.1v4z"/><path d="m232.9 27.6c0 3.1 2.8 4.9 6.1 4.9 4.5 0 8.1-2.7 8.1-6.6v-2.3c-1.8-.5-4.2-1-7.1-1-4.6 0-7.1 1.9-7.1 5zm-.4-12.4-1.1-2.9c2.7-1.2 5.3-2 8.8-2 6.6 0 10.3 3.4 10.3 9.8v14.8h-3.5v-3.7c-1.7 2.2-4.5 4.2-8.8 4.2-4.5 0-9-2.5-9-7.6 0-5.2 4.2-7.9 10.4-7.9 3.1 0 5.3.4 7.5 1v-.8c0-4.4-2.7-6.6-7.2-6.6-2.9 0-5.2.7-7.4 1.7z"/><path d="m256.2 34.8v-34.2h3.6v34.2z"/><path d="m73.2 7.3s-3.1 1.4-5.8 1.3c-2.6-.1-3.9 1.3-3.9 1.3-1.1.8-2 2.2-2.7 3.7v-.6c0-2-1.6-3.6-3.6-3.6s-3.6 1.6-3.6 3.6v18.6c0 2 1.6 3.6 3.6 3.6s3.6-1.6 3.6-3.6v-8.8c.5-3.8 2.4-5.9 5.5-6.6.2 0 .3-.1.5-.1 7.2-2.2 6.4-8.8 6.4-8.8z"/></g><path d="m131.2.4c-20.4 0-36.9 16.5-36.9 36.9v67.9c0 2.2 2.6 3.3 4.2 1.7l20.1-20h25.4c20.4 0 36.9-16.5 36.9-36.9v-49.6z" fill="#5acc5a"/><path d="m118.5 86.9h-18.4l11.5 6.9z" fill="#0ea84c"/><path d="m131.2.4c-20.4 0-36.9 16.5-36.9 36.9v49.6l36.9-36.9z" fill="#0ea84c"/><path d="m180.8.4-49.6 49.6h49.6z" fill="#75dd66"/><path d="m131.2 50-36.9 36.9h49.6c20.4 0 36.9-16.5 36.9-36.9z" fill="#5acc5a"/></g></svg>