<svg xmlns="http://www.w3.org/2000/svg" role="img" aria-label="Costco" class="mx-3" height="28" fill="currentColor" viewBox="0 0 99 28" width="99"><path d="m51.1596 8.88905 3.6558-.13637-3.0683 10.10722h6.5615l3.0683-10.10722 3.5719.13637 1.4581-4.79921h-13.7892z"/><path d="m37.5803 11.5166c-.9179 4.7416-5.9426 7.5791-11.4499 7.5791s-9.4306-2.8428-8.5179-7.5791c.8969-4.64181 5.9793-7.65771 11.4656-7.65771 5.4811 0 9.3991 3.0159 8.5022 7.65771zm-13.3748.0787c-.3252 1.6837.8392 2.8428 2.827 2.8428 1.9879 0 3.5981-1.1539 3.9233-2.8428.3042-1.5683-.7343-2.87951-2.8166-2.87951-2.0822 0-3.6295 1.31121-3.9337 2.87951z"/><path d="m35.54 17.7479c1.8725.8444 4.4058 1.3532 6.6822 1.3532 3.9023 0 8.1665-1.7414 8.8483-5.2713.4826-2.5071-1.2902-3.7239-3.9705-4.23272l-1.4319-.27274c-.4825-.09965-1.2797-.17833-1.1748-.72382.1153-.60842.9913-.7815 1.563-.7815 1.4109 0 2.5858.48778 3.5876 1.11719l2.5019-3.78167c-1.5998-.88117-3.4146-1.29028-5.4706-1.29028-3.9233 0-8.2085 1.9564-8.8851 5.46532-.4458 2.31302 1.4686 3.54562 3.96 3.91802l1.2798.1941c.5769.0997 1.4319.1573 1.3008.8235-.1312.6661-1.2012.8811-1.8463.8811-1.5106 0-2.8008-.6084-3.8341-1.3532l-.2937-.215z"/><path d="m79.1734 4.46218c-1.3112-.39338-2.8008-.60842-4.2852-.60842-5.2922 0-10.0967 3.44599-10.9306 7.75744-.813 4.2117 2.5753 7.4846 7.7207 7.4846 1.1749 0 3.6505-.1783 4.7834-.5874l1.2589-5.523c-1.2169.8444-2.5177 1.3689-4.023 1.3689-1.9616 0-3.4198-1.2535-3.1051-2.8795.3095-1.60498 2.161-2.87953 4.1226-2.87953 1.4844 0 2.6698.6871 3.5667 1.48963z"/><path d="m89.674 3.85889c-5.4811 0-10.5635 3.0159-11.4657 7.65771-.9179 4.7416 3.0107 7.5791 8.518 7.5791 5.5072 0 10.532-2.8428 11.4499-7.5791.8969-4.64181-3.0212-7.65771-8.5022-7.65771zm-.9389 4.8569c2.0823 0 3.1208 1.31121 2.8166 2.87951-.3252 1.6837-1.9354 2.8428-3.9233 2.8428s-3.1523-1.1539-2.8271-2.8428c.3042-1.5683 1.8515-2.87951 3.9338-2.87951z"/><path d="m19.3066 1.14739c-1.6365-.472051-3.4985-.734304-5.3447-.734304-6.59827 0-12.59335 4.169804-13.637109 9.378124-1.017537 5.09289 3.209959 9.04769 9.629889 9.04769 1.46332 0 4.55272-.215 5.96362-.7081l1.5735-6.6769c-1.5158 1.0175-3.1365 1.6574-5.0195 1.6574-2.4494 0-4.26422-1.5158-3.87084-3.48269.38813-1.94066 2.69594-3.4827 5.14534-3.4827 1.8515 0 3.3254.82872 4.4478 1.79905z"/><path d="m33.5783 20.8215.2518 3.96h.063c.1311-.4038.2727-.8287.4772-1.2221l1.3638-2.7379h2.2186l.3357 3.96h.0629c.1154-.3881.2465-.792.4249-1.1696l1.3322-2.7904h3.0107l-4.0702 6.6402h-2.5281l-.2203-3.6085h-.0944c-.0944.3409-.1836.6766-.3409 1.0018l-1.3008 2.6067h-2.4599l-1.5263-6.6402z"/><path d="m42.9093 20.8215h2.7903l-.4248 2.2397h1.7728l.4248-2.2397h2.7904l-1.2588 6.6402h-2.7904l.4354-2.3078h-1.7729l-.4405 2.3078h-2.7904z"/><path d="m58.4346 24.1624c-.4039 2.1295-2.6226 3.4093-5.0563 3.4093-2.4284 0-4.1645-1.2745-3.7607-3.4093.3987-2.0875 2.6435-3.4407 5.0615-3.4407 2.4232-.0053 4.1488 1.3532 3.7555 3.4407zm-5.906.0315c-.1416.7553.3724 1.2746 1.2484 1.2746.8759 0 1.5892-.5193 1.7308-1.2746.1364-.7028-.3252-1.2955-1.243-1.2955-.9179.0052-1.5998.5927-1.7362 1.2955z"/><path d="m59.0692 20.8215h2.8953l-.8602 4.5108h2.4337l-.4039 2.1294h-5.3289z"/><path d="m70.388 25.0857.1311.0944c.4563.3357 1.028.6084 1.6941.6084.2833 0 .7606-.0944.813-.3986.0577-.299-.3199-.3252-.5769-.3672l-.5665-.0891c-1.1015-.1679-1.9459-.7239-1.7466-1.7624.299-1.5787 2.1872-2.4546 3.9233-2.4546.9074 0 1.7099.1835 2.4127.5822l-1.1067 1.6993c-.4406-.2832-.9598-.5035-1.584-.5035-.2518 0-.6399.0787-.6923.3514-.0472.2466.3042.2833.5192.3252l.6294.1207c1.1802.2307 1.9669.7762 1.7519 1.9039-.299 1.584-2.182 2.3708-3.9076 2.3708-1.0018 0-2.1242-.2308-2.9477-.6085z"/><path d="m80.3325 25.0595-.1153-1.1696c-.0315-.2833-.0263-.5717-.0263-.855h-.1049l-.9126 2.0246zm-2.5176 2.4022h-3.0631l4.0282-6.6402h3.1995l1.5787 6.6402h-3.0631l-.1049-.8287h-2.1871z"/><path d="m84.5811 20.8215h2.8952l-.8549 4.5108h2.4284l-.4038 2.1294h-5.3237z"/><path d="m90.445 20.8215h5.3605l-.3462 1.8148h-2.439l-.1206.6347h2.2291l-.3304 1.7256h-2.2291l-.1259.6504h2.5281l-.3462 1.8147h-5.4391z"/><path d="m.781128 27.4721h30.699172v-.0105h-.0262l-.3881-1.6889h-30.284872z"/><path d="m.781128 25.0595h30.122272l-.3934-1.6994h-29.728872z"/><path d="m.781128 22.6362h29.555772l-.1364-.6189-.2727-1.1801h-29.146672z"/><path d="m64.9331 20.8215h5.3552l-.3409 1.8148h-2.4442l-.1206.6347h2.2291l-.3252 1.7256h-2.2291l-.1259.6504h2.5281l-.3462 1.8147h-5.4443z"/><path d="m95.6376 18.697h-.3042l.2517-1.1959h-.4353l.0524-.257h1.1802l-.0525.257h-.4406z"/><path d="m97.6517 18.697h-.2832l.257-1.2168h-.0053l-.5297 1.2168h-.2937l-.0105-1.2168h-.0053l-.257 1.2168h-.2832l.3094-1.4529h.4406l.021 1.1435h.0052l.5036-1.1435h.4353z"/></svg>