<svg xmlns="http://www.w3.org/2000/svg" role="img" aria-label="Fender" class="mx-3" height="39" viewBox="0 0 102 39" width="102"><path d="m78.1174 20.5241c.5087-.0181 1.7596.1451 4.4707.2479 2.8367.1088 3.3993-2.1101 3.2856-3.4825-2.8906.6288-3.5789.792-6.0745.792-2.6214 0-5.8471.7376-5.907 3.0653-.0598 2.3096 2.9325 2.8295 4.4886 3.2709.4309.1027.5925.4534.3052.6832-.6643.538-2.1665 1.2454-2.346 2.509-.2514 1.7896 1.3585 3.1923 3.4053 3.1499 2.7231-.0544 5.7274-1.2273 8.618-4.7279.814-.9915 1.7296-2.6602 2.2982-3.3978.1376-.266.5267-.393.6942-.3748.5147.1148 1.2449.5078 1.1491 1.0761-.1496.8646-2.4837 3.5671-.9276 5.1935.9575.9976 3.3634 1.7231 5.2785.3144 1.7954-1.318 1.161-2.5212.4489-2.6119-.5087-.0604-1.9271 1.7413-3.0762.4535-.9516-1.0641 1.3107-3.2709 1.7655-4.0629.6523-1.1366-1.8852-1.9891-2.9505-3.3978-.6882-.925 1.0952-3.7726-1.1371-4.5223-.7301-.2479-2.9864 1.1245-2.1844 5.0664-1.0234 3.8936-8.8335 10.7074-9.8749 7.9625-.2513-.6711.419-1.7835 2.2084-2.1584 2.9565-.6227 2.7231-2.4667 1.3107-2.6541-2.2144-.2902-2.8308-.2902-5.4701-.913-1.0353-.1088-.9994-1.5054.2214-1.4812z"/><path d="m35.4794 25.0181c-.711.7163-1.5294 1.713-1.637 2.5129-.2389 1.7369.6572 3.2709 2.8676 3.2291 2.3718-.0418 3.1544-1.7608 7.1213-4.1722 1.1112-.6745 2.4852-1.8145 3.0528-1.904.221 0 .5377.0656.5138.4834-.3346 1.5818-.705 2.6442-.2928 3.9991.2868.9491 1.5473 1.5459 2.4554.8595 1.5175-1.146 1.5354-1.7966 3.5009-4.3751.3226-.4298 1.5174-2.3875 2.0671-2.1249.46.2149.3285.8535.2449 1.349-.4122 2.4173-1.4637 6.2314 3.3157 5.6464 1.1351-.1372 2.0491-.9072 1.1888-1.719-.5197-.4894-1.1052-.1373-1.7624-.2865-1.5353-.3521 2.2583-7.3356.4481-8.6309-2.545-1.8204-4.9048 1.4087-6.6732 3.7604-.6989.9311-1.2127.5193-1.6668-.7879-.5018-1.4564-3.5307-.3939-5.2692.5014-2.772 1.4265-7.8919 6.2075-8.3638 3.826-.0837-.4119.5854-1.3311 1.8281-1.7847 1.4577-.5312 3.1125-1.0028 3.1125-1.8802 0-.6804-.4122-1.1579-.8483-1.134-2.0372.1134-4.409.6506-7.1212-.0955-.6154-.006-.8842-1.5579.9498-1.355.484.0538 1.5653.1254 5.6695.209 2.8915.0596 2.9513-2.1011 2.563-3.253-2.4016.7162-3.6264.6327-6.1714.6327-2.6704 0-6.2609.37-6.1115 2.9366.1314 2.1607 3.1663 2.7576 4.7375 2.9307.466-.0299.6034.3999.2808.6267z"/><path clip-rule="evenodd" d="m26.4377 19.096c.2425-.9144.7689-1.1202 1.4609-1.2837 1.0291-.3452 2.4722-.8054 3.3593-.9688 2.2357-.5632 2.8803-.43 3.1701-2.0164.2011-1.102-.2661-1.6288-.2661-1.6288s-4.8794 1.5622-5.8552 1.8407c-.8517.3754-.692-.5389-.692-.5389s-.1242.5813.4081-1.7863c1.5969-7.19345.6624-9.11293-.6092-10.20891-3.2174-2.724814-14.9515 2.91857-23.34985 9.70641-2.79749 2.4886-4.418025 3.0699-2.5964 5.0621 1.62053 1.6591 2.67328.4178 2.67328.4178 1.54365-1.2474 4.86751-4.7351 7.05587-6.3943 3.1168-2.36146 7.4165-5.7705 11.2254-6.67877 3.0222-.78111 3.933.12716 3.5249 3.27583-.2365 2.70664-2.2711 8.79814-2.2711 8.79814s-3.1227 1.429-4.0513 1.7862c-.7275.2786-1.5022.0848-1.585 1.7863-.0355 1.8226 1.0409 1.1384 1.7683.8598.5619-.218 1.8808-.8537 2.3717-1.0657.3667-.2906.7689-.0424.5678.4966-.3667 1.2049-1.0232 3.1547-2.2711 5.9764-1.5792 3.8571-4.418 9.1311-4.7847 10.4572.0414.8719.9758.993 2.2001 1.0112 1.1296-.0908 1.6501-.8901 1.6501-.8901s1.4668-3.2274 3.726-8.9192c1.6501-4.1357 2.7206-7.5508 3.1701-9.0948z" fill-rule="evenodd"/><path d="m67.8775 20.6508c-1.7761-.5182-3.3309 1.6028-3.7854 3.4947-.4126 1.7233-.1973 4.0371 1.3515 4.3383 1.2379.2411 2.679-.8556 3.0498-2.8741.0957-.5423.3289-2.2716.3947-2.7114.4245-2.7476.7475-3.9467.7475-3.9467 1.483-5.7301 5.0411-16.87714 6.0098-17.52788 1.0046-.674847 3.7734-.78933 2.9063 1.53648-1.3455 3.61525-2.9123 6.82076-4.3295 11.2796-1.6624 5.23-4.8797 13.6234-2.0093 13.997 1.3395.1747 1.8837-1.0725 2.691-.4399 1.2319.9701-.1136 2.7235-2.4877 2.9585-3.265.1205-3.1933-1.8076-4.6404-.9761-4.6404 2.6572-7.4989-1.0605-6.5839-5.7121.7833-3.9888 3.8331-6.8027 7.2357-5.0794 0 0 .8731.4338.8013 1.181-.0658.5664-.4963.6808-1.3514.482z"/><path clip-rule="evenodd" d="m98.7766 15.7477c.3279 0 .5692.0308.7239.0925.2722.1111.4083.3395.4083.6727 0 .2345-.0866.4073-.2598.5246-.0929.0617-.2228.1049-.3837.1296.2104.0309.3589.1173.4579.2592s.1423.2777.1423.4073v.1913c0 .0617 0 .1296.0062.1975s.0124.1173.0247.1358l.0186.0309h-.4393c0-.0062-.0062-.0186-.0062-.0247 0-.0062-.0062-.0185-.0062-.0309l-.0123-.0864v-.2098c0-.3086-.0805-.5061-.2475-.6048-.099-.0556-.2723-.0864-.5197-.0864h-.3713v1.043h-.4702v-2.6476h.9343zm.5011.4196c-.1175-.0679-.3032-.0987-.563-.0987h-.396v.9566h.4207c.198 0 .3465-.0186.4455-.0618.1794-.074.2723-.2098.2723-.4134 0-.1914-.0619-.3148-.1795-.3827zm1.2563 2.6229c-.471.4752-1.0397.7097-1.7141.7097s-1.2375-.2345-1.7077-.7097c-.4702-.469-.6991-1.043-.6991-1.7095s.2351-1.2281.7053-1.7033c.4702-.4691 1.0394-.7036 1.7015-.7036.6682 0 1.2371.2345 1.7141.7036.47.469.705 1.0368.705 1.7033.006.6665-.235 1.2343-.705 1.7095zm-3.1805-3.1783c-.4021.4073-.6063.8949-.6063 1.4688 0 .5801.2042 1.0677.6001 1.475.4022.4073.8972.611 1.4726.611s1.0642-.2037 1.4721-.611c.403-.4073.607-.9011.607-1.475s-.204-1.0615-.607-1.4688c-.4079-.4073-.8967-.611-1.4721-.611-.5692 0-1.058.2037-1.4664.611z" fill-rule="evenodd"/></svg>