<svg xmlns="http://www.w3.org/2000/svg" role="img" aria-label="Squarespace" class="mx-3" height="22" viewBox="0 0 155 22" width="155"><path d="m55.7463 9.82409v-.03366c0-2.9625-2.2265-5.52944-5.5451-5.52944-3.3185 0-5.5707 2.59218-5.5707 5.5631v.03367c0 2.96254 2.2266 5.52944 5.5451 5.52944 1.3564 0 2.5252-.4292 3.438-1.153l1.4332 1.2877.8446-.909-1.4503-1.1867c.836-.9763 1.3052-2.2555 1.3052-3.60211zm-2.2265 2.81101-2.0048-1.8011-.8275.909 2.0218 1.7085c-.6654.5049-1.5441.8079-2.5081.8079-2.491 0-4.2996-1.9946-4.2996-4.43531v-.03366c0-2.4407 1.7744-4.41009 4.2655-4.41009 2.491 0 4.2996 1.99464 4.2996 4.43534v.03366c0 1.06046-.3583 2.02826-.9469 2.78576z"/><path d="m65.9548 10.7069c0 2.4205-1.2474 3.6524-3.2015 3.6524-2.0374 0-3.2514-1.3447-3.2514-3.7305v-6.36781h-1.1975v6.44591c0 3.1319 1.7879 4.815 4.4156 4.815 2.6527 0 4.4322-1.6744 4.4322-4.9104v-6.35051h-1.1974z"/><path d="m139.759 14.389c-2.551 0-4.484-1.9762-4.484-4.48906v-.03407c0-2.50431 1.915-4.46346 4.484-4.46346 1.57 0 2.668.62181 3.639 1.49066l.899-.90292c-1.162-1.03068-2.424-1.72916-4.52-1.72916-3.413 0-5.864 2.54689-5.864 5.63043v.03407c0 3.12611 2.469 5.59641 5.818 5.59641 2.106 0 3.431-.7667 4.639-1.9166l-.863-.7922c-1.116 1.0051-2.16 1.5759-3.748 1.5759z"/><path d="m147.22 14.3667v-3.9418h6.017v-1.16398h-6.017v-3.84475h6.724v-1.15518h-7.966v11.26091h8.044v-1.1552z"/><path d="m117.424 4.26099h-4.424v11.26091h1.333v-3.9771h2.869c2.517 0 4.646-1.2522 4.646-3.68598v-.02645c.009-2.2222-1.749-3.57138-4.424-3.57138zm3.082 3.65074c0 1.48146-1.287 2.47797-3.239 2.47797h-2.925v-4.95589h2.989c1.907 0 3.175.83773 3.175 2.44265z"/><path d="m38.7247 9.28388c-2.3593-.51341-2.9135-1.09528-2.9135-2.12211v-.03422c0-.98405.89-1.76272 2.2838-1.76272 1.0998 0 2.099.35938 3.0981 1.1894l.7053-.94981c-1.0915-.88992-2.2082-1.34343-3.7699-1.34343-2.0402 0-3.5263 1.26642-3.5263 2.98635v.03423c0 1.79695 1.1334 2.60985 3.6019 3.15753 2.2502.4877 2.7875 1.061 2.7875 2.0793v.0342c0 1.0782-.9487 1.8569-2.3929 1.8569-1.4861 0-2.5608-.5135-3.6775-1.5403l-.7472.9071c1.2846 1.1722 2.6783 1.7456 4.3827 1.7456 2.1327 0 3.6607-1.2151 3.6607-3.0891v-.0342c0-1.6943-1.0998-2.58419-3.4927-3.11472z"/><path d="m94.9385 10.4249h6.0155v-1.16398h-6.0155v-3.84475h6.7235v-1.15518h-7.9663v11.26091h8.0433v-1.1552h-6.8005z"/><path d="m107.549 9.28388c-2.595-.51341-3.205-1.09528-3.205-2.12211v-.03422c0-.98405.979-1.76272 2.513-1.76272 1.209 0 2.309.35938 3.408 1.1894l.775-.94981c-1.2-.88992-2.429-1.34343-4.146-1.34343-2.245 0-3.879 1.26642-3.879 2.98635v.03423c0 1.79695 1.246 2.60985 3.962 3.15753 2.475.4877 3.066 1.061 3.066 2.0793v.0342c0 1.0782-1.044 1.8569-2.632 1.8569-1.635 0-2.817-.5135-4.045-1.5403l-.822.9071c1.413 1.1722 2.946 1.7456 4.821 1.7456 2.345 0 4.026-1.2151 4.026-3.0891v-.0342c0-1.6943-1.219-2.58419-3.842-3.11472z"/><path d="m73.8062 4.26099-5.0453 11.26091h1.283l1.3177-2.9574h6.0249l1.2916 2.9574h1.3437l-5.0366-11.26091zm-1.9592 7.16601 2.5314-5.69606 2.5139 5.69606z"/><path d="m126.893 4.26099-5.045 11.26091h1.283l1.309-2.9574h6.025l1.3 2.9574h1.344l-5.046-11.26091zm-1.959 7.16601 2.531-5.69606 2.514 5.69606z"/><path d="m90.8626 7.63837v-.02646c0-.88182-.3287-1.67546-.904-2.22219-.7306-.70546-1.8812-1.12873-3.3148-1.12873h-5.0133v11.26091h1.315v-4.3739h3.333l3.3879 4.3739h1.6163l-3.5796-4.6032c1.8172-.3174 3.1595-1.41087 3.1595-3.28033zm-7.9171 2.36323v-4.56779h3.5978c1.8812 0 2.977.83773 2.977 2.22219v.03527c0 1.44619-1.2511 2.31923-3.0044 2.31923h-3.5704z"/><path d="m17.9683 6.6018-8.34715 8.364c-.50929.5104-.50929 1.3494 0 1.8597.50925.5103 1.34655.5103 1.85585 0l8.3472-8.36407c1.0272-1.02928 2.6846-1.02928 3.7118 0 1.0272 1.02929 1.0272 2.68997 0 3.71927l-8.1832 8.1997c1.0272 1.0293 2.6846 1.0293 3.7118 0l6.3359-6.34c2.0458-2.05 2.0458-5.38003 0-7.42996-2.0631-2.05857-5.3864-2.05857-7.4322-.00864z"/><path d="m10.2835.239258h-.31969c-.61339.03287-1.22679.279397-1.69332.723145l-6.34132 6.031687c-1.028088.96968-1.537813 2.25162-1.537813 3.53351 0 1.282.509725 2.5557 1.537813 3.5336 2.04754 1.9476 5.37371 1.9476 7.42125 0l8.35428-7.94639c.5097-.48483.5097-1.28194 0-1.76677-.5097-.48484-1.3477-.48484-1.8575 0l-8.35426 7.94636c-1.02808.9779-2.68685.9779-3.71494 0s-1.02809-2.55564 0-3.53353l8.1902-7.790249c-.4579-.451966-1.0713-.698493-1.6847-.731363z"/><path d="m16.7775.239258h-.5207c-1.2177.060186-2.4187.567471-3.3509 1.521852l-8.12117 8.31429c-.4955.5073-.4955 1.3413 0 1.8486s1.31013.5073 1.80563 0l8.12114-8.31431c.9994-1.02316 2.6119-1.02316 3.6113 0 .4955.50729 1.3101.50729 1.8056 0 .4955-.50728.4955-1.34129 0-1.84858-.9322-.954381-2.1331-1.461666-3.3509-1.521852z"/><path d="m23.3458 9.46735c-.4955-.50692-1.3101-.50692-1.8056 0l-8.1212 8.30835c-.9994 1.0225-2.6118 1.0225-3.61125 0-.4955-.5069-1.31013-.5069-1.80563 0-.4955.507-.4955 1.3404 0 1.8473.9826 1.0053 2.27598 1.5208 3.56928 1.5294h.084c1.2933-.0086 2.5783-.5155 3.5693-1.5294l8.1211-8.3084c.4955-.5069.4955-1.34033 0-1.84725z"/></svg>