<svg xmlns="http://www.w3.org/2000/svg"><symbol id="64196"><g fill="#293856" fill-rule="nonzero" transform="translate(87)"><path d="m42.92 4.64v12.06h-14.29v45.75h-13.78v-45.75h-14.29v-12.06z"></path><path d="m60.46 62.45h-12.74v-45h12.74v8.62c2.42-6.07 6.29-9.68 13.18-9.24v13.33c-9-.7-13.18 1.5-13.18 8.71z"></path><path d="m143.24 62.8c-8.35 0-13.6-4-13.6-13.46v-49.27h12.83v47.51c0 2.73 1.8 3.7 4 3.7.634638.0128631 1.269419-.0172055 1.9-.09v11.09c-1.677893.4087549-3.404213.5837425-5.13.52z"></path><path d="m170 62.8c-8.35 0-13.61-4-13.61-13.46v-49.27h12.83v47.51c0 2.73 1.81 3.7 4.05 3.7.631315.0130885 1.262786-.0169816 1.89-.09v11.09c-1.687411.4126716-3.42418.5876949-5.16.52z"></path><path d="m181.31 39.93c0-13.9 8-23.41 21.78-23.41s21.61 9.48 21.61 23.41-7.92 23.58-21.61 23.58-21.78-9.77-21.78-23.58zm12.49 0c0 6.77 2.84 12.14 9.29 12.14s9.13-5.37 9.13-12.14-2.75-12-9.13-12-9.29 5.22-9.29 12z"></path><path d="m90.84 44c3.5670052.3919324 7.1516349.602204 10.74.63 9.76 0 18-2.62 18-12.07 0-9.17-8.47-16.06-18.66-16.06-13.72 0-22.51 9.95-22.51 23.85 0 14.43 7.58 23 24.71 23 5.081836.0413682 10.127233-.8605644 14.88-2.66v-10.78c-4.4 1.41-9.35 2.81-14.43 2.81-6.82 0-11.57-2.24-12.73-8.72zm9.82-17.68c3.61 0 6.51 2.45 6.51 5.8 0 4.31-4.55 5.66-9.79 5.66-2.2301144-.0102442-4.4563338-.1874058-6.66-.53.1664561-2.1013033.7692883-4.1448022 1.77-6 1.6348247-2.9938883 4.7590565-4.8714866 8.17-4.91z"></path></g></symbol><use xlink:href="#64196"></use></svg>